<svg width="458" height="91" viewBox="0 0 458 91" fill="none" xmlns="http://www.w3.org/2000/svg">
<path d="M222.88 74.9803H201.725V80.1229H222.88V74.9803Z" fill="#FF0052"/>
<path d="M23.0922 30.5408C29.8105 30.5408 35.009 33.2464 39.1327 38.2315C39.8925 39.2044 39.6701 40.5109 38.5859 41.2707L33.6005 46.0427C32.6275 46.9044 31.6453 46.367 30.8854 45.7184C29.1526 43.7633 26.4467 42.2529 23.4166 42.2529C17.5601 42.2529 12.7971 47.238 12.7971 53.3072C12.7971 59.3764 17.4582 64.3615 23.3054 64.3615C27.9665 64.3615 30.0236 62.0821 31.9696 60.2382C32.7295 59.4783 33.8136 59.2652 34.6754 59.9139L39.3365 63.926C40.4207 64.7877 40.8562 65.8811 40.0964 66.956C36.4083 72.7009 30.6723 76.0552 22.9718 76.0552C10.7307 76.0552 0 66.3074 0 53.298C0 40.2885 10.9438 30.55 23.083 30.55" fill="white"/>
<path d="M45.9092 2.20537C45.9092 1.12126 46.8822 0.148329 47.9664 0.148329H57.1773C58.2615 0.148329 59.2345 1.13052 59.2345 2.20537V34.1174C61.4029 32.4958 65.6284 30.5407 70.7157 30.5407C84.4766 30.5407 90.1106 41.1595 90.1106 52.1026V72.9047C90.1106 73.9888 89.1377 74.9617 88.0535 74.9617H79.278C78.0827 74.9617 77.2209 73.9888 77.2209 72.9047V51.9914C77.2209 46.0334 73.8571 42.2436 68.6678 42.2436C63.4786 42.2436 60.3187 45.496 59.2438 49.9344V72.9047C59.2438 74.1 58.5951 74.9617 56.9642 74.9617H47.9664C46.8822 74.9617 45.9092 73.9888 45.9092 72.9047V2.20537Z" fill="white"/>
<path d="M143.807 33.6818C143.807 32.4957 144.78 31.6247 145.864 31.6247H154.862C155.946 31.6247 156.919 32.4865 156.919 33.6818V72.9046C156.919 73.9887 155.946 74.9616 154.862 74.9616H145.864C144.78 74.9616 143.807 73.9887 143.807 72.9046V33.6818ZM142.834 7.47763C142.834 3.36355 146.087 1.90735e-06 150.201 1.90735e-06C154.315 1.90735e-06 157.781 3.36355 157.781 7.47763C157.781 11.5917 154.417 14.9553 150.201 14.9553C145.985 14.9553 142.834 11.5917 142.834 7.47763Z" fill="white"/>
<path d="M132.28 0.148329H123.171C122.035 0.148329 121.114 1.0693 121.114 2.20537V72.9047C121.114 74.0408 122.035 74.9617 123.171 74.9617H132.28C133.417 74.9617 134.338 74.0408 134.338 72.9047V2.20537C134.338 1.0693 133.417 0.148329 132.28 0.148329Z" fill="white"/>
<path d="M98.7083 33.6818C98.7083 32.4957 99.6813 31.6247 100.766 31.6247H109.763C110.848 31.6247 111.821 32.4957 111.821 33.6818V72.9046C111.821 73.9887 110.848 74.9616 109.763 74.9616H100.766C99.6813 74.9616 98.7083 73.9887 98.7083 72.9046V33.6818ZM97.7354 19.0415C97.7354 14.9274 100.988 11.5639 105.102 11.5639C109.217 11.5639 112.692 14.9274 112.692 19.0415C112.692 23.1556 109.328 26.5192 105.102 26.5192C100.877 26.5192 97.7354 23.1556 97.7354 19.0415Z" fill="white"/>
<path d="M162.943 71.8205L178.326 43.4388V43.2165H165.974C164.889 43.2165 164.018 42.2435 164.018 41.1594V33.6818C164.018 32.4957 164.88 31.6247 165.974 31.6247H194.579C196.201 31.6247 197.285 33.1351 196.423 34.5528L180.707 63.1568V63.4811H192.411C193.606 63.4811 194.468 64.3429 194.468 65.5382V72.9046C194.468 73.9887 193.606 74.9617 192.411 74.9617H165.001C163.916 74.9617 162.943 73.9887 162.943 72.9046V71.8205Z" fill="white"/>
<path d="M232.471 71.9966C229.181 69.4948 227.402 66.0108 227.143 61.5261H234.565C234.778 64.0001 235.881 65.9367 237.883 67.3358C239.884 68.735 242.386 69.4299 245.388 69.4299C250.865 69.4299 253.608 67.4285 253.608 63.4256C253.608 62.2673 253.33 61.35 252.774 60.6643C252.218 59.9786 251.523 59.469 250.68 59.1262C249.836 58.7833 248.465 58.2737 246.575 57.588L240.727 55.6885C237.938 54.7897 235.696 53.928 234.009 53.0848C232.323 52.2416 230.923 51.0833 229.821 49.61C228.718 48.1368 228.162 46.2094 228.162 43.8466C228.162 40.1588 229.506 37.2492 232.193 35.1181C234.88 32.9869 238.568 31.9213 243.257 31.9213C247.946 31.9213 251.931 33.163 254.914 35.637C257.889 38.111 259.64 41.6691 260.169 46.3021H252.904C252.589 43.6706 251.56 41.6691 249.827 40.2977C248.085 38.9264 245.852 38.2407 243.109 38.2407C240.737 38.2407 238.883 38.7318 237.54 39.7047C236.196 40.6777 235.529 42.0119 235.529 43.6984C235.529 45.2272 236.066 46.3762 237.15 47.136C238.225 47.8958 239.393 48.4796 240.625 48.878C241.858 49.2765 242.664 49.5266 243.035 49.6286L248.567 51.4447C251.458 52.3898 253.802 53.372 255.6 54.3635C257.389 55.3642 258.76 56.6151 259.705 58.1162C260.65 59.6173 261.123 61.4983 261.123 63.7684C261.123 67.5582 259.77 70.514 257.055 72.6174C254.34 74.7208 250.457 75.7771 245.398 75.7771C240.079 75.7771 235.77 74.5262 232.48 72.0244L232.471 71.9966Z" fill="white"/>
<path d="M268.851 90.6026V32.9313H274.939L275.652 40.2792C277.126 37.7033 279.192 35.6555 281.852 34.1544C284.511 32.6533 287.504 31.9028 290.822 31.9028C294.454 31.9028 297.707 32.8294 300.579 34.664C303.452 36.5079 305.685 39.0746 307.298 42.364C308.901 45.6535 309.707 49.4062 309.707 53.6222C309.707 57.8382 308.901 61.7762 307.298 65.1213C305.694 68.4663 303.452 71.07 300.579 72.9417C297.707 74.8134 294.454 75.7493 290.822 75.7493C287.717 75.7493 284.91 75.0914 282.408 73.7757C279.906 72.4599 277.913 70.616 276.44 68.2439V90.6026H268.851ZM295.835 67.2988C297.707 65.983 299.161 64.1391 300.218 61.767C301.274 59.3949 301.802 56.6892 301.802 53.6315C301.802 50.5737 301.274 48.0533 300.218 45.7276C299.161 43.4111 297.688 41.6042 295.798 40.3163C293.898 39.0283 291.739 38.3797 289.32 38.3797C286.902 38.3797 284.632 39.0098 282.686 40.2792C280.74 41.5394 279.211 43.3184 278.099 45.6071C276.987 47.8958 276.44 50.4903 276.44 53.3905C276.44 56.4483 276.996 59.1818 278.099 61.6094C279.201 64.0371 280.749 65.9181 282.723 67.2617C284.696 68.6053 286.92 69.2724 289.395 69.2724C291.869 69.2724 293.963 68.6145 295.835 67.2988Z" fill="white"/>
<path d="M325.129 72.2883C321.997 70.3703 319.607 67.7202 317.976 64.3474C316.345 60.9746 315.529 57.157 315.529 52.8947C315.529 48.3636 316.437 44.4812 318.254 41.2381C320.07 37.995 322.563 35.5395 325.723 33.8531C328.882 32.1667 332.441 31.3235 336.388 31.3235C340.762 31.3235 344.515 32.2686 347.647 34.1682C350.779 36.0677 353.161 38.6436 354.801 41.9052C356.432 45.1761 357.247 48.8362 357.247 52.8854C357.247 57.5184 356.348 61.5213 354.56 64.8941C352.772 68.2669 350.307 70.815 347.175 72.557C344.042 74.299 340.447 75.1608 336.388 75.1608C332.015 75.1608 328.262 74.1971 325.129 72.2791V72.2883ZM345.988 64.2269C348.333 61.2526 349.5 57.472 349.5 52.8947C349.5 48.3173 348.305 44.7221 345.905 41.9516C343.505 39.1903 340.336 37.8004 336.388 37.8004C332.441 37.8004 329.262 39.181 326.872 41.9516C324.472 44.7128 323.276 48.3636 323.276 52.8947C323.276 56.2119 323.851 59.0565 325.018 61.4286C326.177 63.8007 327.743 65.5983 329.716 66.8399C331.69 68.0816 333.914 68.6931 336.388 68.6931C340.447 68.6931 343.644 67.2013 345.988 64.2269Z" fill="white"/>
<path d="M365.474 74.8042V32.9313H371.552L372.424 40.9927C375.157 35.4146 380.004 32.6162 386.963 32.6162H388.464V40.0383H386.963C382.589 40.0383 379.179 41.2151 376.733 43.5501C374.286 45.8944 373.063 49.1467 373.063 53.3071V74.7949H365.483L365.474 74.8042Z" fill="white"/>
<path d="M413.196 74.8041C408.934 74.8041 405.69 73.7663 403.476 71.6815C401.261 69.6059 400.158 66.5574 400.158 62.5545V39.3247H392.578V32.9219H400.158V18.6246H407.738V32.9219H418.877V39.3247H407.738V62.3136C407.738 64.315 408.22 65.8254 409.202 66.8539C410.175 67.8824 411.584 68.3921 413.428 68.3921H418.089V74.7948H413.187L413.196 74.8041Z" fill="white"/>
<path d="M429.348 71.9966C426.058 69.4948 424.279 66.0108 424.02 61.5261H431.442C431.655 64.0001 432.758 65.9367 434.759 67.3358C436.761 68.735 439.263 69.4299 442.265 69.4299C447.742 69.4299 450.485 67.4285 450.485 63.4256C450.485 62.2673 450.207 61.35 449.651 60.6643C449.095 59.9786 448.4 59.469 447.557 59.1262C446.713 58.7833 445.342 58.2737 443.452 57.588L437.604 55.6885C434.815 54.7897 432.573 53.928 430.886 53.0848C429.2 52.2416 427.8 51.0833 426.698 49.61C425.595 48.1368 425.039 46.2094 425.039 43.8466C425.039 40.1588 426.383 37.2492 429.07 35.1181C431.757 32.9869 435.445 31.9213 440.134 31.9213C444.823 31.9213 448.808 33.163 451.791 35.637C454.766 38.111 456.517 41.6691 457.046 46.3021H449.781C449.465 43.6706 448.437 41.6691 446.704 40.2977C444.962 38.9264 442.729 38.2407 439.986 38.2407C437.614 38.2407 435.76 38.7318 434.417 39.7047C433.073 40.6777 432.406 42.0119 432.406 43.6984C432.406 45.2272 432.943 46.3762 434.027 47.136C435.102 47.8958 436.27 48.4796 437.502 48.878C438.735 49.2765 439.541 49.5266 439.912 49.6286L445.444 51.4447C448.335 52.3898 450.679 53.372 452.477 54.3635C454.266 55.3642 455.637 56.6151 456.582 58.1162C457.527 59.6173 458 61.4983 458 63.7684C458 67.5582 456.647 70.514 453.932 72.6174C451.217 74.7208 447.334 75.7771 442.275 75.7771C436.956 75.7771 432.647 74.5262 429.357 72.0244L429.348 71.9966Z" fill="white"/>
</svg>
