<svg width="174" height="50" viewBox="0 0 174 50" fill="none" xmlns="http://www.w3.org/2000/svg">
<path d="M99.7329 34.3789H93.1113V35.9885H99.7329V34.3789Z" fill="#FF0052"/>
<path d="M37.2005 20.4697C39.3032 20.4697 40.9304 21.3166 42.221 22.8769C42.4589 23.1814 42.3893 23.5904 42.0499 23.8282L40.4895 25.3218C40.185 25.5915 39.8775 25.4233 39.6397 25.2203C39.0973 24.6083 38.2504 24.1356 37.302 24.1356C35.4689 24.1356 33.9781 25.6959 33.9781 27.5955C33.9781 29.4952 35.437 31.0555 37.2672 31.0555C38.7261 31.0555 39.37 30.342 39.979 29.7649C40.2169 29.5271 40.5562 29.4604 40.826 29.6634L42.2849 30.9192C42.6242 31.1889 42.7605 31.5311 42.5227 31.8675C41.3683 33.6657 39.573 34.7155 37.1627 34.7155C33.3313 34.7155 29.9727 31.6645 29.9727 27.5926C29.9727 23.5207 33.398 20.4726 37.1976 20.4726" fill="#260A40"/>
<path d="M44.3418 11.6009C44.3418 11.2616 44.6463 10.957 44.9857 10.957H47.8687C48.208 10.957 48.5126 11.2645 48.5126 11.6009V21.5892C49.1913 21.0817 50.5138 20.4697 52.1062 20.4697C56.4133 20.4697 58.1767 23.7934 58.1767 27.2185V33.7295C58.1767 34.0688 57.8722 34.3733 57.5328 34.3733H54.7861C54.412 34.3733 54.1422 34.0688 54.1422 33.7295V27.1837C54.1422 25.3189 53.0894 24.1327 51.4652 24.1327C49.841 24.1327 48.8519 25.1507 48.5155 26.5399V33.7295C48.5155 34.1036 48.3124 34.3733 47.802 34.3733H44.9857C44.6463 34.3733 44.3418 34.0688 44.3418 33.7295V11.6009Z" fill="#260A40"/>
<path d="M74.9832 21.4529C74.9832 21.0817 75.2878 20.8091 75.6271 20.8091H78.4434C78.7828 20.8091 79.0873 21.0788 79.0873 21.4529V33.7295C79.0873 34.0688 78.7828 34.3733 78.4434 34.3733H75.6271C75.2878 34.3733 74.9832 34.0688 74.9832 33.7295V21.4529ZM74.6787 13.2511C74.6787 11.9634 75.6967 10.9106 76.9845 10.9106C78.2723 10.9106 79.357 11.9634 79.357 13.2511C79.357 14.5388 78.3042 15.5916 76.9845 15.5916C75.6648 15.5916 74.6787 14.5388 74.6787 13.2511Z" fill="#260A40"/>
<path d="M71.3758 10.957H68.5247C68.1691 10.957 67.8809 11.2453 67.8809 11.6009V33.7295C67.8809 34.0851 68.1691 34.3733 68.5247 34.3733H71.3758C71.7315 34.3733 72.0197 34.0851 72.0197 33.7295V11.6009C72.0197 11.2453 71.7315 10.957 71.3758 10.957Z" fill="#260A40"/>
<path d="M60.868 21.4531C60.868 21.0818 61.1726 20.8092 61.5119 20.8092H64.3282C64.6675 20.8092 64.9721 21.0818 64.9721 21.4531V33.7297C64.9721 34.069 64.6675 34.3735 64.3282 34.3735H61.5119C61.1726 34.3735 60.868 34.069 60.868 33.7297V21.4531ZM60.5635 16.8707C60.5635 15.583 61.5815 14.5303 62.8693 14.5303C64.1571 14.5303 65.2447 15.583 65.2447 16.8707C65.2447 18.1584 64.1919 19.2112 62.8693 19.2112C61.5467 19.2112 60.5635 18.1584 60.5635 16.8707Z" fill="#260A40"/>
<path d="M80.9727 33.3902L85.7873 24.5068V24.4372H81.9211C81.5817 24.4372 81.3091 24.1327 81.3091 23.7934V21.4529C81.3091 21.0817 81.5788 20.8091 81.9211 20.8091H90.8746C91.3822 20.8091 91.7215 21.2818 91.4518 21.7255L86.5327 30.6785V30.78H90.1959C90.5701 30.78 90.8398 31.0497 90.8398 31.4238V33.7295C90.8398 34.0688 90.5701 34.3734 90.1959 34.3734H81.6165C81.2772 34.3734 80.9727 34.0688 80.9727 33.7295V33.3902Z" fill="#260A40"/>
<path d="M1.11056 11.8009L8.25424 7.39553C8.88363 7.03881 8.88363 6.30505 8.43117 5.85552L2.46504 0.0870063C2.34903 -0.0290021 2.1576 -0.0290021 2.04158 0.0870063L1.47891 0.652547C0.756708 1.3776 0.759608 2.54928 1.48471 3.27144L3.81373 5.42049C4.20818 5.81492 4.13567 6.47327 3.66001 6.76909L0.875624 8.47441C0.00840467 9.01385 -0.261333 10.1536 0.278142 11.0237L0.6987 11.7023C0.785712 11.8445 0.971337 11.888 1.11056 11.8009Z" fill="#FF0052"/>
<path d="M9.85002 13.2919C8.72176 14.0082 6.53486 15.3916 4.6699 16.5749C3.42273 17.3667 3.1704 19.0807 4.13623 20.2002L8.84938 25.6526C11.5497 28.6224 12.6228 32.732 11.7179 36.6444L10.9261 40.1101C10.5838 41.6153 12.3589 42.6681 13.5277 41.6588C18.4961 37.3723 25.46 27.065 10.9348 13.3963C10.6389 13.1179 10.1894 13.0773 9.84712 13.2948M7.99956 35.4495C8.58544 32.9118 7.88935 30.2494 6.13751 28.3237L1.62738 23.2106C-0.884362 20.3655 -0.263676 15.9485 2.93546 13.9038L10.3141 9.18808C10.7897 8.88355 11.4104 8.93866 11.8281 9.32149C14.5284 11.8128 23.9199 20.7831 23.5022 30.0464C23.5022 30.0464 23.5138 44.4314 9.34535 49.8171C7.26286 50.6089 5.15427 48.7063 5.69955 46.5457C7.65731 38.7905 7.99956 35.4466 7.99956 35.4466" fill="#FF0052"/>
<path d="M102.735 33.4453C101.705 32.6622 101.149 31.5717 101.067 30.168H103.391C103.457 30.9424 103.802 31.5485 104.429 31.9865C105.055 32.4244 105.839 32.6419 106.778 32.6419C108.492 32.6419 109.351 32.0155 109.351 30.7626C109.351 30.4 109.264 30.1129 109.09 29.8983C108.916 29.6837 108.698 29.5242 108.434 29.4169C108.17 29.3096 107.741 29.15 107.15 28.9354L105.319 28.3409C104.446 28.0596 103.744 27.7899 103.217 27.5259C102.689 27.262 102.251 26.8995 101.906 26.4384C101.56 25.9772 101.386 25.374 101.386 24.6344C101.386 23.4801 101.807 22.5695 102.648 21.9024C103.489 21.2354 104.644 20.9019 106.111 20.9019C107.579 20.9019 108.826 21.2905 109.76 22.0648C110.691 22.8392 111.239 23.9529 111.404 25.403H109.13C109.032 24.5793 108.71 23.9529 108.168 23.5236C107.622 23.0944 106.923 22.8798 106.065 22.8798C105.322 22.8798 104.742 23.0335 104.322 23.338C103.901 23.6426 103.692 24.0602 103.692 24.588C103.692 25.0666 103.86 25.4262 104.2 25.664C104.536 25.9018 104.902 26.0845 105.287 26.2092C105.673 26.3339 105.926 26.4123 106.042 26.4442L107.773 27.0126C108.678 27.3084 109.412 27.6158 109.975 27.9262C110.534 28.2394 110.964 28.6309 111.259 29.1007C111.555 29.5706 111.703 30.1593 111.703 30.8699C111.703 32.0561 111.28 32.9812 110.43 33.6396C109.58 34.2979 108.365 34.6285 106.781 34.6285C105.116 34.6285 103.768 34.237 102.738 33.454L102.735 33.4453Z" fill="#260A40"/>
<path d="M114.122 39.2688V21.2179H116.028L116.251 23.5178C116.712 22.7115 117.359 22.0706 118.191 21.6007C119.024 21.1309 119.961 20.896 120.999 20.896C122.136 20.896 123.154 21.186 124.053 21.7603C124.952 22.3374 125.651 23.1408 126.156 24.1703C126.658 25.1999 126.91 26.3745 126.91 27.6941C126.91 29.0137 126.658 30.2463 126.156 31.2932C125.654 32.3402 124.952 33.1552 124.053 33.741C123.154 34.3269 122.136 34.6198 120.999 34.6198C120.027 34.6198 119.148 34.4139 118.365 34.002C117.582 33.5902 116.959 33.0131 116.497 32.2706V39.2688H114.122ZM122.568 31.9748C123.154 31.563 123.609 30.9858 123.94 30.2434C124.271 29.5009 124.436 28.6541 124.436 27.697C124.436 26.7399 124.271 25.9511 123.94 25.2231C123.609 24.4981 123.148 23.9325 122.556 23.5294C121.962 23.1263 121.286 22.9232 120.529 22.9232C119.772 22.9232 119.061 23.1205 118.452 23.5178C117.843 23.9122 117.365 24.4691 117.017 25.1854C116.669 25.9018 116.497 26.7138 116.497 27.6216C116.497 28.5786 116.672 29.4342 117.017 30.1941C117.362 30.9539 117.846 31.5427 118.464 31.9632C119.082 32.3837 119.778 32.5925 120.552 32.5925C121.327 32.5925 121.982 32.3866 122.568 31.9748Z" fill="#260A40"/>
<path d="M131.765 33.7178C130.784 33.1175 130.036 32.288 129.525 31.2323C129.015 30.1767 128.76 28.9818 128.76 27.6477C128.76 26.2295 129.044 25.0143 129.612 23.9992C130.181 22.9841 130.961 22.2156 131.95 21.6878C132.939 21.1599 134.053 20.896 135.289 20.896C136.658 20.896 137.832 21.1918 138.813 21.7864C139.793 22.3809 140.538 23.1872 141.052 24.208C141.562 25.2318 141.817 26.3774 141.817 27.6448C141.817 29.0949 141.536 30.3478 140.976 31.4035C140.416 32.4591 139.645 33.2567 138.665 33.8019C137.684 34.3472 136.559 34.6169 135.289 34.6169C133.92 34.6169 132.745 34.3153 131.765 33.7149V33.7178ZM138.293 31.1946C139.027 30.2637 139.393 29.0804 139.393 27.6477C139.393 26.215 139.018 25.0897 138.267 24.2225C137.516 23.3583 136.524 22.9232 135.289 22.9232C134.053 22.9232 133.058 23.3554 132.31 24.2225C131.559 25.0868 131.184 26.2295 131.184 27.6477C131.184 28.686 131.364 29.5763 131.73 30.3188C132.092 31.0612 132.582 31.6239 133.2 32.0125C133.818 32.4011 134.514 32.5925 135.289 32.5925C136.559 32.5925 137.56 32.1256 138.293 31.1946Z" fill="#260A40"/>
<path d="M144.364 34.3238V21.2177H146.267L146.54 23.7409C147.395 21.995 148.912 21.1191 151.09 21.1191H151.56V23.4422H151.09C149.721 23.4422 148.654 23.8105 147.888 24.5414C147.123 25.2751 146.74 26.2931 146.74 27.5953V34.3209H144.367L144.364 34.3238Z" fill="#260A40"/>
<path d="M159.301 34.3237C157.967 34.3237 156.952 33.9989 156.259 33.3463C155.565 32.6967 155.22 31.7425 155.22 30.4896V23.2188H152.848V21.2148H155.22V16.7397H157.593V21.2148H161.079V23.2188H157.593V30.4142C157.593 31.0407 157.744 31.5134 158.051 31.8353C158.356 32.1573 158.796 32.3168 159.374 32.3168H160.832V34.3208H159.298L159.301 34.3237Z" fill="#260A40"/>
<path d="M164.356 33.4453C163.327 32.6622 162.77 31.5717 162.688 30.168H165.012C165.078 30.9424 165.424 31.5485 166.05 31.9865C166.677 32.4244 167.46 32.6419 168.399 32.6419C170.114 32.6419 170.972 32.0155 170.972 30.7626C170.972 30.4 170.885 30.1129 170.711 29.8983C170.537 29.6837 170.319 29.5242 170.055 29.4169C169.792 29.3096 169.362 29.15 168.771 28.9354L166.94 28.3409C166.067 28.0596 165.366 27.7899 164.838 27.5259C164.31 27.262 163.872 26.8995 163.527 26.4384C163.182 25.9772 163.008 25.374 163.008 24.6344C163.008 23.4801 163.428 22.5695 164.269 21.9024C165.11 21.2354 166.265 20.9019 167.732 20.9019C169.2 20.9019 170.447 21.2905 171.381 22.0648C172.312 22.8392 172.86 23.9529 173.026 25.403H170.752C170.653 24.5793 170.331 23.9529 169.789 23.5236C169.243 23.0944 168.544 22.8798 167.686 22.8798C166.943 22.8798 166.363 23.0335 165.943 23.338C165.522 23.6426 165.313 24.0602 165.313 24.588C165.313 25.0666 165.482 25.4262 165.821 25.664C166.157 25.9018 166.523 26.0845 166.909 26.2092C167.294 26.3339 167.547 26.4123 167.663 26.4442L169.394 27.0126C170.299 27.3084 171.033 27.6158 171.596 27.9262C172.155 28.2394 172.585 28.6309 172.88 29.1007C173.176 29.5706 173.324 30.1593 173.324 30.8699C173.324 32.0561 172.901 32.9812 172.051 33.6396C171.201 34.2979 169.986 34.6285 168.402 34.6285C166.737 34.6285 165.389 34.237 164.359 33.454L164.356 33.4453Z" fill="#260A40"/>
</svg>
