<svg width="174" height="51" viewBox="0 0 174 51" fill="none" xmlns="http://www.w3.org/2000/svg">
<path d="M99.7332 35.0427H93.1116V36.6523H99.7332V35.0427Z" fill="#FF0052"/>
<path d="M37.2 21.1333C39.3028 21.1333 40.9299 21.9802 42.2206 23.5405C42.4584 23.845 42.3888 24.2539 42.0494 24.4917L40.489 25.9853C40.1845 26.2551 39.877 26.0869 39.6392 25.8838C39.0968 25.2719 38.2499 24.7992 37.3015 24.7992C35.4684 24.7992 33.9776 26.3595 33.9776 28.2591C33.9776 30.1587 35.4365 31.7191 37.2667 31.7191C38.7256 31.7191 39.3695 31.0056 39.9785 30.4285C40.2164 30.1906 40.5557 30.1239 40.8255 30.327L42.2844 31.5828C42.6237 31.8525 42.76 32.1947 42.5222 32.5311C41.3678 34.3292 39.5725 35.3791 37.1623 35.3791C33.3308 35.3791 29.9722 32.3281 29.9722 28.2562C29.9722 24.1843 33.3975 21.1362 37.1971 21.1362" fill="#260a40"/>
<path d="M44.3413 12.2645C44.3413 11.9251 44.6459 11.6206 44.9852 11.6206H47.8682C48.2075 11.6206 48.5121 11.928 48.5121 12.2645V22.2528C49.1908 21.7452 50.5134 21.1333 52.1057 21.1333C56.4128 21.1333 58.1762 24.4569 58.1762 27.8821V34.393C58.1762 34.7324 57.8717 35.0369 57.5323 35.0369H54.7856C54.4115 35.0369 54.1418 34.7324 54.1418 34.393V27.8473C54.1418 25.9824 53.0889 24.7963 51.4647 24.7963C49.8405 24.7963 48.8514 25.8142 48.515 27.2034V34.393C48.515 34.7672 48.312 35.0369 47.8015 35.0369H44.9852C44.6459 35.0369 44.3413 34.7324 44.3413 34.393V12.2645Z" fill="#260a40"/>
<path d="M74.9832 22.1165C74.9832 21.7453 75.2878 21.4726 75.6271 21.4726H78.4434C78.7828 21.4726 79.0873 21.7424 79.0873 22.1165V34.3931C79.0873 34.7324 78.7828 35.0369 78.4434 35.0369H75.6271C75.2878 35.0369 74.9832 34.7324 74.9832 34.3931V22.1165ZM74.6787 13.9147C74.6787 12.627 75.6967 11.5742 76.9845 11.5742C78.2723 11.5742 79.357 12.627 79.357 13.9147C79.357 15.2024 78.3042 16.2552 76.9845 16.2552C75.6648 16.2552 74.6787 15.2024 74.6787 13.9147Z" fill="#260a40"/>
<path d="M71.3754 11.6206H68.5243C68.1687 11.6206 67.8804 11.9089 67.8804 12.2645V34.393C67.8804 34.7486 68.1687 35.0369 68.5243 35.0369H71.3754C71.731 35.0369 72.0192 34.7486 72.0192 34.393V12.2645C72.0192 11.9089 71.731 11.6206 71.3754 11.6206Z" fill="#260a40"/>
<path d="M60.8675 22.1164C60.8675 21.7452 61.1721 21.4726 61.5114 21.4726H64.3277C64.6671 21.4726 64.9716 21.7452 64.9716 22.1164V34.393C64.9716 34.7323 64.6671 35.0368 64.3277 35.0368H61.5114C61.1721 35.0368 60.8675 34.7323 60.8675 34.393V22.1164ZM60.563 17.5341C60.563 16.2464 61.581 15.1936 62.8688 15.1936C64.1566 15.1936 65.2442 16.2464 65.2442 17.5341C65.2442 18.8218 64.1914 19.8745 62.8688 19.8745C61.5462 19.8745 60.563 18.8218 60.563 17.5341Z" fill="#260a40"/>
<path d="M80.9727 34.0538L85.7873 25.1704V25.1008H81.9211C81.5817 25.1008 81.3091 24.7963 81.3091 24.457V22.1165C81.3091 21.7453 81.5788 21.4727 81.9211 21.4727H90.8746C91.3822 21.4727 91.7215 21.9454 91.4518 22.3891L86.5327 31.3421V31.4436H90.1959C90.5701 31.4436 90.8398 31.7133 90.8398 32.0874V34.3931C90.8398 34.7324 90.5701 35.0369 90.1959 35.0369H81.6165C81.2772 35.0369 80.9727 34.7324 80.9727 34.3931V34.0538Z" fill="#260a40"/>
<path d="M1.11056 12.4645L8.25424 8.05911C8.88363 7.70238 8.88363 6.96863 8.43117 6.5191L2.46504 0.75058C2.34903 0.634572 2.1576 0.634572 2.04158 0.75058L1.47891 1.31612C0.756708 2.04117 0.759608 3.21286 1.48471 3.93501L3.81373 6.08406C4.20818 6.47849 4.13567 7.13684 3.66001 7.43266L0.875624 9.13798C0.00840467 9.67742 -0.261333 10.8172 0.278142 11.6873L0.6987 12.3659C0.785712 12.508 0.971337 12.5515 1.11056 12.4645Z" fill="#FF0052"/>
<path d="M9.84953 13.9552C8.72127 14.6716 6.53437 16.055 4.66942 17.2382C3.42224 18.03 3.16991 19.744 4.13574 20.8635L8.84889 26.3159C11.5492 29.2857 12.6223 33.3953 11.7174 37.3077L10.9256 40.7734C10.5833 42.2786 12.3584 43.3314 13.5272 42.3221C18.4956 38.0356 25.4595 27.7283 10.9343 14.0596C10.6384 13.7812 10.1889 13.7406 9.84663 13.9581M7.99907 36.1128C8.58495 33.5751 7.88886 30.9127 6.13702 28.987L1.6269 23.8739C-0.88485 21.0288 -0.264164 16.6118 2.93498 14.5671L10.3136 9.85141C10.7893 9.54688 11.4099 9.60199 11.8276 9.98482C14.5279 12.4761 23.9194 21.4464 23.5017 30.7097C23.5017 30.7097 23.5133 45.0947 9.34486 50.4804C7.26237 51.2722 5.15378 49.3696 5.69906 47.209C7.65683 39.4538 7.99907 36.1099 7.99907 36.1099" fill="#FF0052"/>
<path d="M102.735 34.1088C101.705 33.3258 101.148 32.2353 101.067 30.8316H103.39C103.457 31.6059 103.802 32.2121 104.429 32.65C105.055 33.088 105.838 33.3055 106.778 33.3055C108.492 33.3055 109.351 32.679 109.351 31.4261C109.351 31.0636 109.264 30.7765 109.09 30.5619C108.916 30.3473 108.698 30.1877 108.434 30.0804C108.17 29.9731 107.741 29.8136 107.149 29.599L105.319 29.0045C104.446 28.7231 103.744 28.4534 103.216 28.1895C102.688 27.9256 102.251 27.5631 101.905 27.1019C101.56 26.6408 101.386 26.0376 101.386 25.298C101.386 24.1437 101.807 23.233 102.648 22.566C103.489 21.899 104.643 21.5654 106.111 21.5654C107.579 21.5654 108.826 21.9541 109.76 22.7284C110.691 23.5028 111.239 24.6164 111.404 26.0666H109.13C109.032 25.2429 108.71 24.6164 108.167 24.1872C107.622 23.758 106.923 23.5434 106.065 23.5434C105.322 23.5434 104.742 23.6971 104.321 24.0016C103.901 24.3061 103.692 24.7238 103.692 25.2516C103.692 25.7301 103.86 26.0898 104.2 26.3276C104.536 26.5654 104.901 26.7481 105.287 26.8728C105.673 26.9975 105.925 27.0758 106.041 27.1077L107.773 27.6762C108.678 27.972 109.412 28.2794 109.974 28.5897C110.534 28.903 110.963 29.2945 111.259 29.7643C111.555 30.2342 111.703 30.8229 111.703 31.5334C111.703 32.7196 111.279 33.6448 110.43 34.3031C109.58 34.9615 108.365 35.2921 106.781 35.2921C105.116 35.2921 103.767 34.9006 102.738 34.1175L102.735 34.1088Z" fill="#260a40"/>
<path d="M114.122 39.9324V21.8815H116.027L116.251 24.1814C116.712 23.3751 117.359 22.7342 118.191 22.2643C119.024 21.7945 119.96 21.5596 120.999 21.5596C122.136 21.5596 123.154 21.8496 124.053 22.4238C124.952 23.001 125.651 23.8043 126.156 24.8339C126.657 25.8635 126.91 27.0381 126.91 28.3577C126.91 29.6773 126.657 30.9098 126.156 31.9568C125.654 33.0038 124.952 33.8187 124.053 34.4046C123.154 34.9904 122.136 35.2834 120.999 35.2834C120.027 35.2834 119.148 35.0774 118.365 34.6656C117.582 34.2538 116.958 33.6766 116.497 32.9342V39.9324H114.122ZM122.568 32.6384C123.154 32.2265 123.609 31.6494 123.94 30.9069C124.27 30.1645 124.436 29.3176 124.436 28.3606C124.436 27.4035 124.27 26.6146 123.94 25.8867C123.609 25.1616 123.148 24.5961 122.556 24.193C121.962 23.7898 121.286 23.5868 120.529 23.5868C119.772 23.5868 119.061 23.784 118.452 24.1814C117.843 24.5758 117.364 25.1326 117.016 25.849C116.668 26.5653 116.497 27.3774 116.497 28.2852C116.497 29.2422 116.671 30.0978 117.016 30.8576C117.362 31.6175 117.846 32.2062 118.464 32.6268C119.082 33.0473 119.778 33.2561 120.552 33.2561C121.326 33.2561 121.982 33.0502 122.568 32.6384Z" fill="#260a40"/>
<path d="M131.765 34.3814C130.784 33.781 130.036 32.9516 129.526 31.8959C129.015 30.8402 128.76 29.6454 128.76 28.3113C128.76 26.8931 129.044 25.6779 129.613 24.6628C130.181 23.6477 130.961 22.8792 131.95 22.3513C132.939 21.8235 134.053 21.5596 135.289 21.5596C136.658 21.5596 137.832 21.8554 138.813 22.4499C139.793 23.0445 140.539 23.8507 141.052 24.8716C141.562 25.8954 141.818 27.041 141.818 28.3084C141.818 29.7585 141.536 31.0113 140.976 32.067C140.417 33.1227 139.645 33.9203 138.665 34.4655C137.685 35.0107 136.559 35.2805 135.289 35.2805C133.92 35.2805 132.745 34.9788 131.765 34.3785V34.3814ZM138.294 31.8582C139.027 30.9272 139.393 29.744 139.393 28.3113C139.393 26.8786 139.019 25.7533 138.268 24.8861C137.516 24.0218 136.524 23.5868 135.289 23.5868C134.053 23.5868 133.058 24.0189 132.31 24.8861C131.559 25.7504 131.185 26.8931 131.185 28.3113C131.185 29.3495 131.365 30.2399 131.73 30.9823C132.093 31.7248 132.583 32.2874 133.201 32.6761C133.818 33.0647 134.514 33.2561 135.289 33.2561C136.559 33.2561 137.56 32.7892 138.294 31.8582Z" fill="#260a40"/>
<path d="M144.364 34.9876V21.8816H146.267L146.539 24.4047C147.395 22.6588 148.912 21.783 151.09 21.783H151.56V24.106H151.09C149.721 24.106 148.654 24.4744 147.888 25.2052C147.122 25.939 146.739 26.9569 146.739 28.2591V34.9847H144.367L144.364 34.9876Z" fill="#260a40"/>
<path d="M159.301 34.9875C157.967 34.9875 156.952 34.6627 156.259 34.0102C155.566 33.3605 155.22 32.4063 155.22 31.1535V23.8826H152.848V21.8786H155.22V17.4036H157.593V21.8786H161.079V23.8826H157.593V31.078C157.593 31.7045 157.744 32.1772 158.051 32.4991C158.356 32.8211 158.797 32.9806 159.374 32.9806H160.833V34.9846H159.298L159.301 34.9875Z" fill="#260a40"/>
<path d="M164.356 34.1088C163.327 33.3258 162.77 32.2353 162.689 30.8316H165.012C165.079 31.6059 165.424 32.2121 166.05 32.65C166.677 33.088 167.46 33.3055 168.4 33.3055C170.114 33.3055 170.972 32.679 170.972 31.4261C170.972 31.0636 170.885 30.7765 170.711 30.5619C170.537 30.3473 170.32 30.1877 170.056 30.0804C169.792 29.9731 169.363 29.8136 168.771 29.599L166.941 29.0045C166.068 28.7231 165.366 28.4534 164.838 28.1895C164.31 27.9256 163.872 27.5631 163.527 27.1019C163.182 26.6408 163.008 26.0376 163.008 25.298C163.008 24.1437 163.428 23.233 164.269 22.566C165.111 21.899 166.265 21.5654 167.733 21.5654C169.2 21.5654 170.447 21.9541 171.381 22.7284C172.312 23.5028 172.86 24.6164 173.026 26.0666H170.752C170.653 25.2429 170.331 24.6164 169.789 24.1872C169.244 23.758 168.545 23.5434 167.686 23.5434C166.944 23.5434 166.364 23.6971 165.943 24.0016C165.522 24.3061 165.314 24.7238 165.314 25.2516C165.314 25.7301 165.482 26.0898 165.821 26.3276C166.158 26.5654 166.523 26.7481 166.909 26.8728C167.295 26.9975 167.547 27.0758 167.663 27.1077L169.394 27.6762C170.299 27.972 171.033 28.2794 171.596 28.5897C172.156 28.903 172.585 29.2945 172.881 29.7643C173.177 30.2342 173.324 30.8229 173.324 31.5334C173.324 32.7196 172.901 33.6448 172.051 34.3031C171.201 34.9615 169.986 35.2921 168.403 35.2921C166.738 35.2921 165.389 34.9006 164.359 34.1175L164.356 34.1088Z" fill="#260a40"/>
</svg>
